<svg width="205" height="61" viewBox="0 0 205 61" fill="none" xmlns="http://www.w3.org/2000/svg">
<path d="M3.58665 49V12.6364H17.223C20.0166 12.6364 22.3603 13.1217 24.2543 14.0923C26.16 15.063 27.5982 16.4242 28.5689 18.1761C29.5514 19.9162 30.0426 21.9463 30.0426 24.2663C30.0426 26.5982 29.5455 28.6224 28.5511 30.3388C27.5687 32.0433 26.1186 33.3632 24.201 34.2983C22.2834 35.2216 19.9278 35.6832 17.1342 35.6832H7.42188V30.2145H16.2464C17.88 30.2145 19.2176 29.9896 20.2592 29.5398C21.3009 29.0781 22.0703 28.4093 22.5675 27.5334C23.0765 26.6456 23.331 25.5566 23.331 24.2663C23.331 22.9761 23.0765 21.8752 22.5675 20.9638C22.0585 20.0405 21.2831 19.3421 20.2415 18.8686C19.1998 18.3833 17.8563 18.1406 16.2109 18.1406H10.174V49H3.58665ZM22.3722 32.5227L31.3743 49H24.0234L15.1811 32.5227H22.3722ZM43.6701 49.5504C41.9419 49.5504 40.3853 49.2427 39.0004 48.6271C37.6272 47.9998 36.5382 47.0765 35.7333 45.8572C34.9402 44.638 34.5437 43.1347 34.5437 41.3473C34.5437 39.8085 34.8278 38.536 35.396 37.5298C35.9641 36.5237 36.7395 35.7188 37.7219 35.1151C38.7044 34.5114 39.8112 34.0556 41.0423 33.7479C42.2852 33.4283 43.5695 33.1974 44.8952 33.0554C46.4933 32.8897 47.7894 32.7417 48.7837 32.6115C49.7781 32.4695 50.5001 32.2564 50.9499 31.9723C51.4116 31.6764 51.6424 31.2206 51.6424 30.6051V30.4986C51.6424 29.161 51.2459 28.1252 50.4528 27.3913C49.6597 26.6574 48.5174 26.2905 47.0259 26.2905C45.4516 26.2905 44.2028 26.6338 43.2795 27.3203C42.368 28.0069 41.7525 28.8177 41.4329 29.7528L35.4315 28.9006C35.9049 27.2434 36.6862 25.8584 37.7752 24.7457C38.8642 23.6212 40.1959 22.7808 41.7702 22.2244C43.3446 21.6562 45.0846 21.3722 46.9904 21.3722C48.3043 21.3722 49.6123 21.526 50.9144 21.8338C52.2165 22.1416 53.4061 22.6506 54.4833 23.3608C55.5605 24.0592 56.4246 25.0121 57.0756 26.2195C57.7385 27.4268 58.07 28.9361 58.07 30.7472V49H51.891V45.2536H51.6779C51.2873 46.0111 50.7369 46.7214 50.0266 47.3842C49.3282 48.0353 48.4464 48.562 47.381 48.9645C46.3275 49.3551 45.0906 49.5504 43.6701 49.5504ZM45.3391 44.8274C46.6294 44.8274 47.748 44.5729 48.695 44.0639C49.6419 43.5431 50.3699 42.8565 50.8789 42.0043C51.3997 41.152 51.6602 40.2228 51.6602 39.2166V36.0028C51.4589 36.1686 51.1156 36.3224 50.6303 36.4645C50.1568 36.6065 49.6242 36.7308 49.0323 36.8374C48.4405 36.9439 47.8545 37.0386 47.2745 37.1214C46.6945 37.2043 46.1914 37.2753 45.7653 37.3345C44.8065 37.4647 43.9483 37.6778 43.1907 37.9737C42.4331 38.2696 41.8353 38.6839 41.3974 39.2166C40.9594 39.7375 40.7404 40.4122 40.7404 41.2408C40.7404 42.4245 41.1725 43.3182 42.0366 43.9219C42.9007 44.5256 44.0015 44.8274 45.3391 44.8274ZM64.533 49V21.7273H70.9606V49H64.533ZM67.7646 17.8565C66.7466 17.8565 65.8706 17.5192 65.1367 16.8445C64.4028 16.1579 64.0359 15.3352 64.0359 14.3764C64.0359 13.4058 64.4028 12.5831 65.1367 11.9084C65.8706 11.2218 66.7466 10.8786 67.7646 10.8786C68.7944 10.8786 69.6703 11.2218 70.3924 11.9084C71.1263 12.5831 71.4933 13.4058 71.4933 14.3764C71.4933 15.3352 71.1263 16.1579 70.3924 16.8445C69.6703 17.5192 68.7944 17.8565 67.7646 17.8565ZM99.1255 28.9361L93.2662 29.5753C93.1004 28.9834 92.8104 28.4271 92.3961 27.9062C91.9937 27.3854 91.4492 26.9652 90.7626 26.6456C90.0761 26.326 89.2356 26.1662 88.2413 26.1662C86.9037 26.1662 85.7792 26.4562 84.8677 27.0362C83.9681 27.6162 83.5242 28.3679 83.536 29.2912C83.5242 30.0843 83.8142 30.7294 84.4061 31.2266C85.0098 31.7237 86.0041 32.1321 87.389 32.4517L92.041 33.446C94.6215 34.0024 96.5391 34.8842 97.7939 36.0916C99.0604 37.299 99.6996 38.8793 99.7115 40.8324C99.6996 42.5488 99.1966 44.0639 98.2022 45.3778C97.2198 46.6799 95.8526 47.6979 94.1007 48.4318C92.3488 49.1657 90.3365 49.5327 88.0637 49.5327C84.7257 49.5327 82.0386 48.8343 80.0027 47.4375C77.9667 46.0289 76.7534 44.0698 76.3627 41.5604L82.6305 40.9567C82.9146 42.1877 83.5183 43.117 84.4416 43.7443C85.3649 44.3717 86.5663 44.6854 88.046 44.6854C89.573 44.6854 90.7981 44.3717 91.7214 43.7443C92.6565 43.117 93.1241 42.3416 93.1241 41.4183C93.1241 40.6371 92.8223 39.992 92.2186 39.483C91.6267 38.974 90.7034 38.5833 89.4487 38.3111L84.7967 37.3345C82.1807 36.79 80.2453 35.8726 78.9906 34.5824C77.7359 33.2803 77.1144 31.6349 77.1262 29.6463C77.1144 27.9654 77.5701 26.5095 78.4934 25.2784C79.4286 24.0355 80.7247 23.0767 82.3819 22.402C84.051 21.7154 85.9745 21.3722 88.1525 21.3722C91.3485 21.3722 93.8639 22.0528 95.6987 23.4141C97.5453 24.7753 98.6876 26.616 99.1255 28.9361ZM122.394 37.5298V21.7273H128.822V49H122.59V44.1527H122.306C121.69 45.6797 120.678 46.9285 119.269 47.8991C117.873 48.8698 116.15 49.3551 114.102 49.3551C112.315 49.3551 110.735 48.9586 109.362 48.1655C108 47.3606 106.935 46.1946 106.166 44.6676C105.396 43.1288 105.012 41.2704 105.012 39.0923V21.7273H111.439V38.098C111.439 39.8262 111.913 41.1993 112.86 42.2173C113.807 43.2353 115.049 43.7443 116.588 43.7443C117.535 43.7443 118.453 43.5135 119.34 43.0518C120.228 42.5902 120.956 41.9036 121.524 40.9922C122.104 40.0689 122.394 38.9148 122.394 37.5298ZM141.859 12.6364V49H135.431V12.6364H141.859Z" fill="#FAFAFA"/>
<path d="M161.155 49V12.6364H174.791C177.585 12.6364 179.929 13.1217 181.823 14.0923C183.728 15.063 185.167 16.4242 186.137 18.1761C187.12 19.9162 187.611 21.9463 187.611 24.2663C187.611 26.5982 187.114 28.6224 186.119 30.3388C185.137 32.0433 183.687 33.3632 181.769 34.2983C179.852 35.2216 177.496 35.6832 174.703 35.6832H164.99V30.2145H173.815C175.448 30.2145 176.786 29.9896 177.828 29.5398C178.869 29.0781 179.639 28.4093 180.136 27.5334C180.645 26.6456 180.899 25.5566 180.899 24.2663C180.899 22.9761 180.645 21.8752 180.136 20.9638C179.627 20.0405 178.852 19.3421 177.81 18.8686C176.768 18.3833 175.425 18.1406 173.779 18.1406H167.742V49H161.155ZM179.941 32.5227L188.943 49H181.592L172.749 32.5227H179.941ZM197.35 49.3906C196.273 49.3906 195.349 49.0118 194.58 48.2543C193.811 47.4967 193.432 46.5734 193.444 45.4844C193.432 44.419 193.811 43.5076 194.58 42.75C195.349 41.9924 196.273 41.6136 197.35 41.6136C198.392 41.6136 199.297 41.9924 200.067 42.75C200.848 43.5076 201.244 44.419 201.256 45.4844C201.244 46.2064 201.055 46.8634 200.688 47.4553C200.333 48.0471 199.859 48.5206 199.268 48.8757C198.688 49.219 198.048 49.3906 197.35 49.3906Z" fill="#90DE2E"/>
</svg>
